<?xml version="1.0" standalone="no"?>
<!DOCTYPE svg PUBLIC "-//W3C//DTD SVG 20010904//EN"
 "http://www.w3.org/TR/2001/REC-SVG-20010904/DTD/svg10.dtd">
<svg version="1.0" xmlns="http://www.w3.org/2000/svg"
 width="900.000000pt" height="300.000000pt" viewBox="0 0 900.000000 300.000000"
 preserveAspectRatio="xMidYMid meet">
<metadata>
Created by potrace 1.10, written by Peter Selinger 2001-2011
</metadata>
<g transform="translate(0.000000,300.000000) scale(0.100000,-0.100000)"
fill="#000000" stroke="none">
<path d="M230 2781 c-14 -27 -14 -2555 0 -2581 10 -19 40 -20 1286 -20 857 0
1282 3 1295 10 19 10 19 37 19 1300 0 1267 0 1289 -19 1300 -14 7 -431 10
-1295 10 -1248 0 -1276 -1 -1286 -19z m2545 -1291 l0 -1255 -1230 -3 c-676 -1
-1240 0 -1252 3 l-23 5 0 1249 c0 990 3 1250 13 1254 6 3 570 5 1252 4 l1240
-2 0 -1255z"/>
<path d="M2140 2384 c-36 -8 -96 -21 -135 -29 -38 -9 -88 -20 -110 -25 -22 -5
-71 -16 -110 -24 -38 -7 -91 -20 -117 -27 -35 -10 -60 -10 -104 -2 -69 12
-114 1 -153 -37 -16 -17 -43 -29 -71 -34 -25 -4 -58 -11 -75 -16 -16 -5 -66
-16 -110 -25 -44 -9 -94 -21 -112 -26 -17 -5 -56 -12 -85 -16 -29 -3 -57 -9
-63 -13 -5 -4 -30 -11 -55 -14 -81 -12 -119 -34 -132 -78 -10 -34 -9 -42 9
-66 11 -15 30 -32 42 -38 34 -17 34 -18 0 -80 -17 -33 -58 -108 -89 -169 -31
-60 -72 -137 -90 -170 -93 -169 -95 -175 -80 -185 31 -20 77 -11 96 18 31 45
114 203 114 215 0 3 14 26 30 50 17 25 30 48 30 53 0 4 9 27 21 51 34 70 48
60 119 -79 162 -322 169 -330 235 -314 23 6 26 11 21 31 -3 13 -20 44 -36 69
-17 24 -30 51 -30 59 0 8 -7 20 -15 27 -8 7 -15 19 -15 26 0 8 -12 33 -27 57
-15 23 -43 74 -63 112 -21 39 -53 101 -74 139 -20 38 -36 74 -36 81 0 13 63
35 99 35 12 0 31 5 41 10 10 6 45 14 77 20 49 7 129 26 251 57 18 4 32 -3 58
-28 l34 -33 0 -523 c0 -288 -3 -523 -7 -524 -5 0 -42 -1 -84 -2 -66 -2 -80 -6
-112 -30 -33 -25 -36 -32 -39 -85 l-3 -57 -62 -5 c-69 -6 -65 -3 -87 -47 -20
-39 -21 -87 -2 -102 9 -8 147 -10 492 -9 l479 3 3 51 c4 75 -20 102 -96 106
l-57 3 -5 55 c-3 30 -9 61 -14 69 -16 25 -95 52 -149 51 -29 -1 -58 -1 -64 -1
-10 1 -13 113 -13 526 l0 524 29 33 c15 18 31 43 35 54 4 12 14 28 24 37 18
16 115 42 212 56 30 5 69 13 85 19 45 16 144 36 150 30 6 -6 -54 -134 -85
-183 -11 -16 -22 -37 -26 -45 -3 -8 -10 -24 -16 -34 -5 -10 -28 -53 -50 -95
-22 -42 -44 -80 -49 -85 -5 -6 -9 -16 -9 -24 0 -8 -9 -25 -20 -39 -11 -14 -20
-37 -20 -50 0 -22 3 -24 46 -21 l46 3 43 80 c24 44 60 114 81 155 21 41 50 97
66 123 15 26 28 54 28 62 0 20 19 29 35 15 7 -6 22 -28 32 -48 11 -20 42 -80
70 -132 28 -52 67 -126 88 -165 49 -92 51 -95 95 -95 44 0 54 16 35 51 -7 13
-34 65 -59 114 -25 50 -66 126 -90 170 -74 134 -126 240 -126 258 0 10 8 21
17 24 58 22 74 105 27 142 -31 24 -70 25 -164 5z"/>
<path d="M1847 1544 c-8 -9 1 -62 21 -109 51 -126 191 -215 338 -215 99 0 212
46 280 114 39 39 84 133 84 175 l0 41 -358 0 c-197 0 -361 -3 -365 -6z"/>
<path d="M479 1226 c-31 -32 11 -147 80 -215 55 -55 103 -81 192 -106 68 -18
85 -17 204 11 36 8 120 62 157 101 43 46 78 121 78 169 0 24 -3 44 -7 44 -210
6 -696 3 -704 -4z"/>
<path d="M4097 2544 c-8 -16 -31 -69 -51 -119 -21 -49 -44 -103 -52 -118 -8
-16 -14 -33 -14 -39 0 -6 -13 -40 -30 -75 -16 -34 -30 -69 -30 -77 0 -7 -7
-19 -15 -26 -8 -7 -15 -21 -15 -30 0 -10 -6 -31 -14 -47 -14 -28 -30 -65 -61
-139 -9 -22 -15 -54 -13 -70 3 -28 5 -29 57 -29 59 0 56 -3 111 118 l21 47
120 0 119 0 20 -32 c11 -18 25 -49 30 -69 15 -54 39 -71 96 -67 44 3 49 6 53
28 1 14 -4 38 -12 55 -8 16 -29 66 -47 110 -37 94 -51 128 -72 175 -9 19 -23
55 -33 80 -10 25 -24 61 -33 80 -18 43 -30 72 -73 175 -18 44 -36 84 -40 89
-4 4 -14 -5 -22 -20z m45 -359 c11 -28 27 -65 36 -82 22 -44 8 -55 -63 -55
-72 0 -84 11 -62 57 9 20 17 41 17 47 0 20 35 88 43 85 5 -1 18 -25 29 -52z"/>
<path d="M6310 2530 c-11 -21 -20 -44 -20 -50 0 -5 -13 -39 -30 -73 -16 -35
-30 -69 -30 -75 0 -6 -6 -23 -14 -39 -8 -15 -21 -44 -29 -63 -15 -38 -38 -91
-60 -143 -8 -17 -22 -52 -32 -77 -19 -48 -40 -97 -63 -145 -7 -16 -12 -43 -10
-60 3 -29 6 -30 54 -33 48 -3 54 0 73 27 12 16 21 35 21 42 0 7 9 32 21 56
l21 43 123 0 124 0 21 -47 c58 -128 49 -118 110 -118 77 0 78 13 15 160 -7 17
-20 50 -30 75 -9 25 -21 52 -26 60 -5 8 -12 22 -15 30 -3 8 -13 33 -21 55 -18
45 -33 84 -55 135 -9 19 -23 55 -33 80 -9 25 -23 59 -30 75 -8 17 -23 51 -34
78 -11 26 -22 47 -25 47 -3 0 -15 -18 -26 -40z m40 -306 c0 -9 6 -28 13 -42
63 -123 62 -129 -23 -134 -77 -4 -89 7 -67 60 8 20 24 58 34 84 17 46 43 65
43 32z"/>
<path d="M6892 2158 l3 -383 29 -3 c15 -2 39 -1 52 2 l24 6 0 164 c0 126 3
166 14 175 11 9 17 5 32 -16 11 -16 21 -32 24 -38 3 -5 28 -43 55 -83 28 -40
55 -81 60 -91 6 -9 20 -30 32 -46 27 -38 23 -42 143 137 52 78 101 144 108
146 9 3 12 -35 12 -165 0 -184 2 -193 55 -193 66 0 65 -3 65 398 -1 354 -1
362 -21 362 -11 0 -23 -8 -27 -18 -11 -28 -280 -428 -297 -442 -13 -11 -19
-10 -33 6 -25 27 -302 445 -302 455 0 5 -7 9 -15 9 -13 0 -15 -47 -13 -382z"/>
<path d="M3292 2153 l3 -378 205 0 205 0 3 52 3 52 -153 3 -153 3 -5 320 -5
320 -53 3 -52 3 2 -378z"/>
<path d="M4514 2506 c-3 -13 -4 -37 -2 -52 l3 -29 95 -5 95 -5 3 -309 c1 -208
6 -314 13 -323 15 -17 83 -17 98 1 9 11 13 102 14 323 l2 308 94 5 c106 6 118
14 107 73 l-7 37 -254 0 -255 0 -6 -24z"/>
<path d="M5272 2153 l3 -378 38 -3 c64 -5 67 3 67 162 0 97 4 146 12 154 13
13 242 18 272 6 14 -5 16 -28 16 -153 0 -161 3 -171 56 -171 65 0 64 -5 64
376 0 219 -4 352 -10 365 -8 14 -21 19 -55 19 -55 0 -54 2 -58 -180 l-2 -135
-145 0 -145 0 -5 155 -5 155 -53 3 -52 3 2 -378z"/>
<path d="M4988 1179 c-10 -5 -18 -16 -18 -24 0 -8 -7 -31 -16 -52 -16 -37 -30
-67 -58 -135 -8 -18 -29 -69 -46 -113 -18 -44 -41 -98 -51 -121 -10 -23 -19
-44 -19 -48 0 -8 -43 -105 -65 -149 -8 -16 -15 -35 -15 -43 0 -8 -7 -26 -16
-39 -9 -13 -13 -29 -9 -35 3 -5 35 -10 71 -10 61 0 65 1 74 28 6 15 14 36 19
47 5 11 13 32 20 48 6 15 19 27 28 27 10 1 67 1 126 1 111 0 137 -7 137 -40 0
-9 6 -26 14 -37 8 -11 16 -31 18 -44 3 -23 8 -25 67 -28 78 -4 90 5 68 53 -9
19 -24 51 -32 70 -8 19 -21 50 -29 68 -8 17 -29 68 -46 112 -18 44 -39 95 -46
113 -33 77 -42 100 -59 142 -20 51 -42 103 -60 140 -7 14 -15 37 -19 53 -7 29
-12 32 -38 16z m40 -344 c3 -19 18 -55 47 -117 7 -14 11 -29 7 -32 -7 -8 -147
-8 -154 0 -3 3 3 29 14 57 11 29 24 67 29 85 8 26 15 33 32 30 13 -2 23 -11
25 -23z"/>
<path d="M5487 1174 c-4 -4 -7 -178 -7 -386 l0 -379 53 3 52 3 3 165 c1 93 7
169 13 175 6 6 18 0 34 -20 13 -17 24 -34 25 -39 0 -4 14 -25 30 -46 17 -21
30 -42 30 -48 0 -6 4 -12 8 -14 4 -1 28 -34 52 -71 l43 -68 23 23 c28 29 174
245 174 258 0 9 32 30 44 30 3 0 7 -78 8 -173 l3 -172 50 0 50 0 3 373 c2 320
0 373 -12 370 -8 -2 -83 -106 -168 -233 -84 -126 -160 -230 -168 -230 -11 0
-258 357 -325 470 -6 9 -13 13 -18 9z"/>
<path d="M8390 1163 c-30 -6 -76 -47 -96 -85 -17 -33 -18 -117 -2 -155 6 -15
72 -89 145 -164 73 -74 133 -142 133 -150 0 -8 -13 -29 -29 -47 -25 -27 -37
-32 -73 -32 -42 0 -84 20 -101 47 -14 22 -43 14 -80 -22 -21 -20 -37 -39 -37
-44 0 -4 15 -21 33 -38 63 -59 74 -63 179 -63 88 0 103 3 138 25 63 40 90 91
90 173 0 46 -5 75 -17 92 -9 14 -74 84 -145 157 -114 117 -128 134 -118 152
23 44 91 52 131 15 16 -14 21 -13 68 22 55 41 55 50 -4 96 -23 18 -43 22 -109
24 -45 1 -92 0 -106 -3z"/>
<path d="M3448 1127 c-75 -42 -119 -86 -157 -158 -30 -57 -31 -64 -31 -184 0
-120 1 -127 31 -184 38 -72 86 -119 163 -160 56 -30 64 -31 178 -31 132 0 190
18 202 62 9 35 7 111 -4 128 -8 12 -13 11 -37 -10 -52 -47 -87 -60 -158 -60
-106 0 -186 48 -236 143 -31 60 -31 170 1 224 80 133 214 180 341 119 59 -29
61 -26 57 60 -4 78 -16 84 -173 83 -115 -1 -122 -2 -177 -32z"/>
<path d="M4010 785 l0 -376 58 3 57 3 5 160 5 160 132 3 c172 3 164 11 163
-167 -1 -75 -1 -142 0 -149 0 -9 16 -12 58 -10 l57 3 0 370 0 370 -57 3 c-42
2 -58 -1 -59 -10 0 -7 0 -71 1 -143 0 -71 -3 -135 -8 -142 -6 -10 -175 -18
-279 -14 -9 1 -13 42 -15 154 l-3 152 -57 3 -58 3 0 -376z"/>
<path d="M6380 785 l0 -375 150 0 c141 0 154 2 200 25 27 14 61 41 77 62 27
35 28 42 27 139 l0 103 -37 47 c-43 55 -44 59 -17 99 14 22 20 47 20 92 0 77
-24 122 -85 157 -41 25 -51 26 -189 26 l-146 0 0 -375z m224 263 c58 -16 76
-35 76 -77 0 -28 -7 -42 -36 -67 -45 -40 -133 -72 -145 -52 -12 19 -11 166 1
189 12 22 44 24 104 7z m114 -366 c28 -51 24 -79 -17 -118 -31 -29 -102 -53
-158 -54 -43 0 -53 21 -53 115 0 84 -11 72 100 115 42 16 47 16 75 1 17 -10
41 -36 53 -59z"/>
<path d="M7010 785 l0 -375 226 0 225 0 -3 48 -3 47 -160 5 -160 5 -3 113 -3
112 128 0 c70 0 134 4 141 9 9 5 12 25 10 57 l-3 49 -138 3 -138 3 3 97 3 97
160 5 160 5 3 48 3 47 -225 0 -226 0 0 -375z"/>
<path d="M7635 1147 c-3 -6 -4 -174 -3 -372 l3 -360 55 0 55 0 2 105 c1 58 2
111 3 118 0 7 15 12 43 12 l43 0 89 -120 89 -120 68 0 c40 0 68 4 68 10 0 6
-38 62 -85 124 -47 63 -85 116 -85 119 0 3 24 28 53 56 44 41 55 60 71 115 26
94 12 172 -46 248 -51 67 -88 78 -264 78 -115 0 -156 -3 -159 -13z m261 -99
c85 -23 123 -106 89 -194 -14 -37 -25 -50 -59 -65 -46 -21 -160 -26 -172 -8
-10 17 -4 252 8 266 13 16 74 17 134 1z"/>
</g>
</svg>
