<?xml version='1.0' encoding='iso-8859-1'?>
<svg version="1.1" xmlns="http://www.w3.org/2000/svg" viewBox="0 0 137.144 137.144" xmlns:xlink="http://www.w3.org/1999/xlink" enable-background="new 0 0 137.144 137.144">
  <g>
    <g>
      <path d="m54.858,41.144l-13.715-20.572-13.714,13.714 13.714,20.572 13.715-13.714zm13.714,6.857c-18.936,0-34.286,15.351-34.286,34.286 0,18.936 15.35,34.286 34.286,34.286 18.936,0 34.286-15.351 34.286-34.286 0-18.936-15.35-34.286-34.286-34.286zm13.715,54.858l-13.716-7.013-13.713,7.013 3.439-14.88-10.296-12.549 14.221-.179 6.35-13.559 6.351,13.559 14.222,.179-10.299,12.549 3.441,14.88zm27.428-102.859h-82.286c-15.149,0-27.429,12.281-27.429,27.429v82.286c0,15.149 12.28,27.429 27.429,27.429h82.286c15.149,0 27.429-12.28 27.429-27.429v-82.286c0-15.148-12.28-27.429-27.429-27.429zm13.715,102.858c0,11.361-9.21,20.572-20.572,20.572h-68.572c-11.361,0-20.571-9.21-20.571-20.572v-68.572c0-11.361 9.21-20.572 20.571-20.572h68.572c11.362,0 20.572,9.21 20.572,20.572v68.572zm-41.143-61.714l13.714,13.715 13.714-20.572-13.714-13.715-13.714,20.572z"/>
    </g>
  </g>
</svg>
